# xmcd CD database file
#
# Track frame offsets:
#	150
#	21380
#	42282
#	63512
#
# Disc length: 1122 seconds
#
# Revision: 0
# Processed by: cddbd v1.5.1PL0 Copyright (c) Steve Scherf et al.
# Submitted via: CDex 1.51
#
DISCID=31046004
DTITLE=angela - YOU GET TO BURNING
DYEAR=2005
DGENRE=JPop
TTITLE0=YOU GET TO BURNING
TTITLE1=Dearest
TTITLE2=YOU GET TO BURNING (off vocal version)
TTITLE3=Dearest (off vocal version)
EXTD=YEAR: 2005
EXTT0=
EXTT1=
EXTT2=
EXTT3=
PLAYORDER=
